<svg xmlns="http://www.w3.org/2000/svg" xml:space="preserve" version="1.1" viewBox="0 0 40 40" fill="#fff">
 <g>
  <path d="M24.967 9.934c10.761,0 7.21,16.371 0,16.371 -7.21,0 -10.761,-16.371 0,-16.371zm0 30.066c5.618,0 11.478,-1.322 13.915,-1.941 2.312,-0.588 0.517,-4.788 -0.74,-5.966 -2.798,-2.623 -6.117,-3.703 -6.738,-3.459 -1.907,0.75 -2.648,4.965 -4.037,4.745 -0.756,-0.12 -1.026,-1.867 -1.482,-3.301 -0.183,-0.575 1.127,-1.859 -0.918,-1.859 -2.044,0 -0.735,1.284 -0.917,1.859l-0.888 2.79c-0.186,0.586 -0.96,0.709 -1.319,0.21 -1.65,-2.288 -1.988,-3.923 -3.313,-4.444 -0.62,-0.244 -3.939,0.836 -6.738,3.459 -1.257,1.178 -3.052,5.378 -0.74,5.966 2.437,0.619 8.298,1.941 13.915,1.941zm-5.78 -40l-19.187 4.733 0 28.247 8.502 0.732c0.635,-1.607 1.358,-2.593 2.369,-3.476l0 -4.24 -3.726 -0.046 0 5.097 -4.606 -0.396 0 -23.93 14.594 -3.6 0 9.317c2.336,-4.859 8.707,-5.508 12.487,-3.424l0 -4.782 -10.433 -4.232zm-3.345 5.204l-3.025 0.635 0 3.56 3.025 -0.522 0 -3.673zm-10.327 2.374l-2.107 0.446 0 3.124 2.107 -0.362 0 -3.208zm4.832 -1.089l-2.678 0.561 0 3.3 2.678 -0.461 0 -3.4zm-4.832 7.254l-2.107 0.288 0 3.13 2.107 -0.209 0 -3.209zm4.832 -0.703l-2.678 0.363 0 3.3 2.678 -0.264 0 -3.399zm5.495 -0.795l-3.025 0.41 0 3.504 3.025 -0.298 0 -3.616zm0 7.108l-3.025 0.187 0 3.504 3.025 -0.074 0 -3.617zm-5.495 0.362l-2.678 0.165 0 3.3 2.678 -0.066 0 -3.399zm-4.832 0.319l-2.107 0.131 0 3.13 2.107 -0.052 0 -3.209z"/>
 </g>
</svg>
