<svg xmlns="http://www.w3.org/2000/svg" xml:space="preserve" version="1.1" viewBox="0 0 40 40" fill="#fff">
 <g>
  <path d="M20 0c14.316,0 9.592,21.78 0,21.78 -9.592,0 -14.316,-21.78 0,-21.78zm0 40.001c7.474,0 15.271,-1.76 18.513,-2.583 3.076,-0.782 0.688,-6.37 -0.984,-7.937 -3.724,-3.49 -8.139,-4.926 -8.965,-4.602 -2.537,0.997 -3.523,6.606 -5.371,6.313 -0.381,-0.061 -0.675,-0.314 -0.791,-0.68l-1.181 -3.712c-0.244,-0.765 1.499,-2.473 -1.221,-2.473 -2.72,0 -0.977,1.708 -1.221,2.473l-1.181 3.712c-0.247,0.78 -1.277,0.943 -1.755,0.279 -2.195,-3.044 -2.644,-5.219 -4.407,-5.912 -0.826,-0.324 -5.241,1.112 -8.965,4.602 -1.672,1.567 -4.06,7.155 -0.984,7.937 3.242,0.823 11.039,2.583 18.513,2.583z"/>
 </g>
</svg>