<svg xmlns="http://www.w3.org/2000/svg" xml:space="preserve" version="1.1" viewBox="0 0 40 40" fill="#fff">
 <g>
  <path d="M0.425 18.956l4.961 -4.963c1.403,-1.404 3.525,0.718 2.122,2.121l-2.389 2.388 13.381 0c1.984,0 1.984,3.001 0,3.001l-13.381 0 2.389 2.388c1.403,1.403 -0.719,3.524 -2.122,2.121l-4.959 -4.962c-0.568,-0.58 -0.57,-1.513 -0.002,-2.094zm11.074 4.547c0.828,0 1.5,0.672 1.5,1.5l0 10.001c0,1.101 0.9,2.001 2,2.001l20.003 0c1.1,0 2,-0.9 2,-2.001l0 -30.004c0,-1.1 -0.9,-2 -2,-2l-20.003 0c-1.1,0 -2,0.9 -2,2l0 10.002c0,0.828 -0.672,1.5 -1.5,1.5 -0.829,0 -1.5,-0.672 -1.5,-1.5l0 -10.002c0,-2.75 2.25,-5 5,-5l20.003 0c2.75,0 5,2.25 5,5l0 30.004c0,2.751 -2.25,5.001 -5,5.001l-20.003 0c-2.75,0 -5,-2.25 -5,-5.001l0 -10.001c0,-0.828 0.671,-1.5 1.5,-1.5z"/>
 </g>
</svg>
