<svg xmlns="http://www.w3.org/2000/svg" xml:space="preserve" version="1.1" viewBox="0 0 34 40" fill="#fff">
 <g>
  <path d="M22.024 0l-22.024 5.433 0 32.423 22.004 1.895 11.996 -2.038 0 -32.855 -11.976 -4.858zm-2.357 36.625l-7.189 -0.619 0 -6.166 -4.276 -0.053 0 5.851 -5.288 -0.455 0 -27.468 16.753 -4.132 0 33.042zm-1.483 -30.652l-3.471 0.729 0 4.087 3.471 -0.599 0 -4.217zm-11.853 2.725l-2.42 0.512 0 3.586 2.42 -0.415 0 -3.683zm5.546 -1.249l-3.074 0.643 0 3.789 3.074 -0.53 0 -3.902zm-5.546 8.326l-2.42 0.331 0 3.593 2.42 -0.241 0 -3.683zm5.546 -0.807l-3.074 0.416 0 3.789 3.074 -0.303 0 -3.902zm6.307 -0.912l-3.471 0.47 0 4.023 3.471 -0.342 0 -4.151zm0 8.159l-3.471 0.214 0 4.023 3.471 -0.086 0 -4.151zm-6.307 0.415l-3.074 0.189 0 3.789 3.074 -0.076 0 -3.902zm-5.546 0.367l-2.42 0.15 0 3.592 2.42 -0.06 0 -3.682z"/>
 </g>
</svg>
